<svg width="17" height="17" viewBox="0 0 17 17" fill="none" xmlns="http://www.w3.org/2000/svg">
<g clip-path="url(#clip0_2001_602)">
<mask id="mask0_2001_602" style="mask-type:alpha" maskUnits="userSpaceOnUse" x="0" y="0" width="17" height="17">
<rect x="0.230957" y="0.5" width="16" height="16" fill="#D9D9D9"/>
</mask>
<g mask="url(#mask0_2001_602)">
<path d="M1.98104 12.6167L0.897705 11.8334L4.23104 6.50004L6.23104 8.83337L8.89771 4.50004L10.7144 7.21671C10.4588 7.22782 10.2171 7.25837 9.98937 7.30837C9.76159 7.35837 9.53659 7.42782 9.31437 7.51671L8.94771 6.96671L6.41437 11.0834L4.39771 8.73337L1.98104 12.6167ZM14.6144 15.8334L12.531 13.75C12.3088 13.9056 12.0616 14.0223 11.7894 14.1C11.5171 14.1778 11.2366 14.2167 10.9477 14.2167C10.1144 14.2167 9.40604 13.925 8.82271 13.3417C8.23937 12.7584 7.94771 12.05 7.94771 11.2167C7.94771 10.3834 8.23937 9.67504 8.82271 9.09171C9.40604 8.50837 10.1144 8.21671 10.9477 8.21671C11.781 8.21671 12.4894 8.50837 13.0727 9.09171C13.656 9.67504 13.9477 10.3834 13.9477 11.2167C13.9477 11.5056 13.9088 11.7862 13.831 12.0584C13.7533 12.3306 13.6366 12.5834 13.481 12.8167L15.5644 14.8834L14.6144 15.8334ZM10.9477 12.8834C11.4144 12.8834 11.8088 12.7223 12.131 12.4C12.4533 12.0778 12.6144 11.6834 12.6144 11.2167C12.6144 10.75 12.4533 10.3556 12.131 10.0334C11.8088 9.71115 11.4144 9.55004 10.9477 9.55004C10.481 9.55004 10.0866 9.71115 9.76437 10.0334C9.44215 10.3556 9.28104 10.75 9.28104 11.2167C9.28104 11.6834 9.44215 12.0778 9.76437 12.4C10.0866 12.7223 10.481 12.8834 10.9477 12.8834ZM12.431 7.55004C12.2199 7.46115 12.0005 7.38893 11.7727 7.33337C11.5449 7.27782 11.3088 7.24449 11.0644 7.23337L14.481 1.83337L15.5644 2.61671L12.431 7.55004Z" fill="#748AF4"/>
</g>
</g>
<defs>
<clipPath id="clip0_2001_602">
<rect width="16" height="16" fill="white" transform="translate(0.179932 0.5)"/>
</clipPath>
</defs>
</svg>
