<svg width="24" height="24" viewBox="0 0 24 24" fill="none" xmlns="http://www.w3.org/2000/svg">
<g clip-path="url(#clip0_2005_49)">
<mask id="mask0_2005_49" style="mask-type:alpha" maskUnits="userSpaceOnUse" x="0" y="0" width="25" height="24">
<rect x="0.076416" width="24" height="24" fill="#D9D9D9"/>
</mask>
<g mask="url(#mask0_2005_49)">
<path d="M5.92642 12L5.62642 10.5C5.42642 10.4167 5.23892 10.3292 5.06392 10.2375C4.88892 10.1458 4.70975 10.0333 4.52642 9.9L3.07642 10.35L2.07642 8.65L3.22642 7.65C3.19308 7.43333 3.17642 7.21667 3.17642 7C3.17642 6.78333 3.19308 6.56667 3.22642 6.35L2.07642 5.35L3.07642 3.65L4.52642 4.1C4.70975 3.96667 4.88892 3.85417 5.06392 3.7625C5.23892 3.67083 5.42642 3.58333 5.62642 3.5L5.92642 2H7.92642L8.22642 3.5C8.42642 3.58333 8.61392 3.67083 8.78892 3.7625C8.96392 3.85417 9.14308 3.96667 9.32642 4.1L10.7764 3.65L11.7764 5.35L10.6264 6.35C10.6597 6.56667 10.6764 6.78333 10.6764 7C10.6764 7.21667 10.6597 7.43333 10.6264 7.65L11.7764 8.65L10.7764 10.35L9.32642 9.9C9.14308 10.0333 8.96392 10.1458 8.78892 10.2375C8.61392 10.3292 8.42642 10.4167 8.22642 10.5L7.92642 12H5.92642ZM6.92642 9C7.47642 9 7.94725 8.80417 8.33892 8.4125C8.73058 8.02083 8.92642 7.55 8.92642 7C8.92642 6.45 8.73058 5.97917 8.33892 5.5875C7.94725 5.19583 7.47642 5 6.92642 5C6.37642 5 5.90558 5.19583 5.51392 5.5875C5.12225 5.97917 4.92642 6.45 4.92642 7C4.92642 7.55 5.12225 8.02083 5.51392 8.4125C5.90558 8.80417 6.37642 9 6.92642 9ZM14.8764 23L14.4264 20.9C14.1431 20.8 13.8806 20.6792 13.6389 20.5375C13.3972 20.3958 13.1597 20.2333 12.9264 20.05L10.9264 20.7L9.52642 18.3L11.1264 16.9C11.0931 16.6 11.0764 16.3 11.0764 16C11.0764 15.7 11.0931 15.4 11.1264 15.1L9.52642 13.7L10.9264 11.3L12.9264 11.95C13.1597 11.7667 13.3972 11.6042 13.6389 11.4625C13.8806 11.3208 14.1431 11.2 14.4264 11.1L14.8764 9H17.6764L18.1264 11.1C18.4097 11.2 18.6722 11.3208 18.9139 11.4625C19.1556 11.6042 19.3931 11.7667 19.6264 11.95L21.6264 11.3L23.0264 13.7L21.4264 15.1C21.4597 15.4 21.4764 15.7 21.4764 16C21.4764 16.3 21.4597 16.6 21.4264 16.9L23.0264 18.3L21.6264 20.7L19.6264 20.05C19.3931 20.2333 19.1556 20.3958 18.9139 20.5375C18.6722 20.6792 18.4097 20.8 18.1264 20.9L17.6764 23H14.8764ZM16.2764 19C17.1097 19 17.8181 18.7083 18.4014 18.125C18.9848 17.5417 19.2764 16.8333 19.2764 16C19.2764 15.1667 18.9848 14.4583 18.4014 13.875C17.8181 13.2917 17.1097 13 16.2764 13C15.4431 13 14.7347 13.2917 14.1514 13.875C13.5681 14.4583 13.2764 15.1667 13.2764 16C13.2764 16.8333 13.5681 17.5417 14.1514 18.125C14.7347 18.7083 15.4431 19 16.2764 19Z" fill="#627EF8"/>
</g>
</g>
<defs>
<clipPath id="clip0_2005_49">
<rect width="24" height="24" fill="white"/>
</clipPath>
</defs>
</svg>
