<svg width="24" height="24" viewBox="0 0 24 24" fill="none" xmlns="http://www.w3.org/2000/svg">
<g clip-path="url(#clip0_2005_569)">
<mask id="mask0_2005_569" style="mask-type:alpha" maskUnits="userSpaceOnUse" x="0" y="0" width="25" height="24">
<rect x="0.076416" width="24" height="24" fill="#D9D9D9"/>
</mask>
<g mask="url(#mask0_2005_569)">
<path d="M12.0764 22L11.8264 19H11.5764C9.20975 19 7.20142 18.175 5.55142 16.525C3.90142 14.875 3.07642 12.8667 3.07642 10.5C3.07642 8.13333 3.90142 6.125 5.55142 4.475C7.20142 2.825 9.20975 2 11.5764 2C12.7597 2 13.8639 2.22083 14.8889 2.6625C15.9139 3.10417 16.8139 3.7125 17.5889 4.4875C18.3639 5.2625 18.9722 6.1625 19.4139 7.1875C19.8556 8.2125 20.0764 9.31667 20.0764 10.5C20.0764 11.75 19.8722 12.95 19.4639 14.1C19.0556 15.25 18.4972 16.3167 17.7889 17.3C17.0806 18.2833 16.2389 19.175 15.2639 19.975C14.2889 20.775 13.2264 21.45 12.0764 22ZM11.5514 15.975C11.8348 15.975 12.0764 15.875 12.2764 15.675C12.4764 15.475 12.5764 15.2333 12.5764 14.95C12.5764 14.6667 12.4764 14.425 12.2764 14.225C12.0764 14.025 11.8348 13.925 11.5514 13.925C11.2681 13.925 11.0264 14.025 10.8264 14.225C10.6264 14.425 10.5264 14.6667 10.5264 14.95C10.5264 15.2333 10.6264 15.475 10.8264 15.675C11.0264 15.875 11.2681 15.975 11.5514 15.975ZM10.8264 12.8H12.3264C12.3264 12.3 12.3764 11.95 12.4764 11.75C12.5764 11.55 12.8931 11.1833 13.4264 10.65C13.7264 10.35 13.9764 10.025 14.1764 9.675C14.3764 9.325 14.4764 8.95 14.4764 8.55C14.4764 7.7 14.1889 7.0625 13.6139 6.6375C13.0389 6.2125 12.3597 6 11.5764 6C10.8431 6 10.2264 6.20417 9.72642 6.6125C9.22642 7.02083 8.87642 7.51667 8.67642 8.1L10.0764 8.65C10.1597 8.36667 10.3181 8.0875 10.5514 7.8125C10.7847 7.5375 11.1264 7.4 11.5764 7.4C12.0264 7.4 12.3639 7.525 12.5889 7.775C12.8139 8.025 12.9264 8.3 12.9264 8.6C12.9264 8.88333 12.8431 9.1375 12.6764 9.3625C12.5097 9.5875 12.3097 9.81667 12.0764 10.05C11.4931 10.55 11.1389 10.9458 11.0139 11.2375C10.8889 11.5292 10.8264 12.05 10.8264 12.8Z" fill="#ABACAD"/>
</g>
</g>
<defs>
<clipPath id="clip0_2005_569">
<rect width="24" height="24" fill="white"/>
</clipPath>
</defs>
</svg>
