<svg width="24" height="24" viewBox="0 0 24 24" fill="none" xmlns="http://www.w3.org/2000/svg">
<g clip-path="url(#clip0_2005_811)">
<mask id="mask0_2005_811" style="mask-type:alpha" maskUnits="userSpaceOnUse" x="0" y="0" width="25" height="24">
<rect x="0.076416" width="24" height="24" fill="#D9D9D9"/>
</mask>
<g mask="url(#mask0_2005_811)">
<path d="M12.0764 12C11.7931 12 11.5556 11.9042 11.3639 11.7125C11.1722 11.5208 11.0764 11.2833 11.0764 11V3C11.0764 2.71667 11.1722 2.47917 11.3639 2.2875C11.5556 2.09583 11.7931 2 12.0764 2C12.3597 2 12.5972 2.09583 12.7889 2.2875C12.9806 2.47917 13.0764 2.71667 13.0764 3V11C13.0764 11.2833 12.9806 11.5208 12.7889 11.7125C12.5972 11.9042 12.3597 12 12.0764 12ZM12.0764 21C10.8264 21 9.65558 20.7625 8.56392 20.2875C7.47225 19.8125 6.52225 19.1708 5.71392 18.3625C4.90558 17.5542 4.26392 16.6042 3.78892 15.5125C3.31392 14.4208 3.07642 13.25 3.07642 12C3.07642 10.9833 3.24308 9.99583 3.57642 9.0375C3.90975 8.07917 4.39308 7.2 5.02642 6.4C5.20975 6.16667 5.44308 6.05417 5.72642 6.0625C6.00975 6.07083 6.25975 6.18333 6.47642 6.4C6.65975 6.58333 6.74308 6.80833 6.72642 7.075C6.70975 7.34167 6.61808 7.59167 6.45142 7.825C6.00142 8.425 5.65975 9.08333 5.42642 9.8C5.19308 10.5167 5.07642 11.25 5.07642 12C5.07642 13.95 5.75558 15.6042 7.11392 16.9625C8.47225 18.3208 10.1264 19 12.0764 19C14.0264 19 15.6806 18.3208 17.0389 16.9625C18.3973 15.6042 19.0764 13.95 19.0764 12C19.0764 11.2333 18.9639 10.4875 18.7389 9.7625C18.5139 9.0375 18.1597 8.375 17.6764 7.775C17.5097 7.55833 17.4181 7.32083 17.4014 7.0625C17.3847 6.80417 17.4681 6.58333 17.6514 6.4C17.8514 6.2 18.0931 6.09583 18.3764 6.0875C18.6597 6.07917 18.8931 6.18333 19.0764 6.4C19.7264 7.2 20.2222 8.075 20.5639 9.025C20.9056 9.975 21.0764 10.9667 21.0764 12C21.0764 13.25 20.8389 14.4208 20.3639 15.5125C19.8889 16.6042 19.2472 17.5542 18.4389 18.3625C17.6306 19.1708 16.6806 19.8125 15.5889 20.2875C14.4972 20.7625 13.3264 21 12.0764 21Z" fill="#E45B70"/>
</g>
</g>
<defs>
<clipPath id="clip0_2005_811">
<rect width="24" height="24" fill="white"/>
</clipPath>
</defs>
</svg>
