<svg width="117" height="32" viewBox="0 0 117 32" fill="none" xmlns="http://www.w3.org/2000/svg">
<g clip-path="url(#clip0_1_2065)">
<path d="M0 0L17.4757 12.8803C19.5747 14.4287 19.5747 17.5675 17.4757 19.1159L0 32H29.2053V0H0Z" fill="#F59F23"/>
<path d="M0.00762939 7.2793V24.0516C4.6375 24.0516 8.39186 20.2972 8.39186 15.6673C8.39186 11.0375 4.6375 7.2793 0.00762939 7.2793Z" fill="#F59F23"/>
<path d="M35.2917 0.615479H42.9266V31.3347H35.2917V0.615479Z" fill="#061859"/>
<path d="M75.0948 0.615479V31.3347H67.8958L54.335 13.0332V31.3347H46.788V0.615479H53.9871L67.5479 18.917V0.615479H75.0948Z" fill="#061859"/>
<path d="M93.5723 4.4978e-05C100.022 4.4978e-05 105.072 3.028 107.527 8.6022L100.901 11.9819C99.4982 8.82394 96.8181 7.19909 93.6143 7.19909C88.8736 7.19909 85.4939 10.8426 85.4939 15.9771C85.4939 21.1116 88.8736 24.7551 93.6143 24.7551C96.8181 24.7551 99.4944 23.1303 100.901 19.9723L107.527 23.352C105.069 28.9262 100.022 31.9542 93.5723 31.9542C84.2246 32.0842 77.4232 25.1948 77.5532 16.023C77.4193 6.98117 84.0028 -0.129943 93.5723 4.4978e-05Z" fill="#061859"/>
<path d="M108.842 0.615479H116.477V31.3347H108.842V0.615479Z" fill="#061859"/>
</g>
<defs>
<clipPath id="clip0_1_2065">
<rect width="116.481" height="32" fill="white"/>
</clipPath>
</defs>
</svg>
