<svg width="16" height="16" viewBox="0 0 16 16" fill="none" xmlns="http://www.w3.org/2000/svg">
<g clip-path="url(#clip0_2034_614)">
<mask id="mask0_2034_614" style="mask-type:alpha" maskUnits="userSpaceOnUse" x="0" y="0" width="17" height="16">
<rect x="0.0509033" width="16" height="16" fill="#D9D9D9"/>
</mask>
<g mask="url(#mask0_2034_614)">
<path d="M13.1176 14L8.91757 9.8C8.58424 10.0667 8.2009 10.2778 7.76757 10.4333C7.33424 10.5889 6.87313 10.6667 6.38424 10.6667C5.17313 10.6667 4.14813 10.2472 3.30924 9.40833C2.47035 8.56944 2.0509 7.54444 2.0509 6.33333C2.0509 5.12222 2.47035 4.09722 3.30924 3.25833C4.14813 2.41944 5.17313 2 6.38424 2C7.59535 2 8.62035 2.41944 9.45924 3.25833C10.2981 4.09722 10.7176 5.12222 10.7176 6.33333C10.7176 6.82222 10.6398 7.28333 10.4842 7.71667C10.3287 8.15 10.1176 8.53333 9.8509 8.86667L14.0509 13.0667L13.1176 14ZM6.38424 9.33333C7.21757 9.33333 7.9259 9.04167 8.50924 8.45833C9.09257 7.875 9.38424 7.16667 9.38424 6.33333C9.38424 5.5 9.09257 4.79167 8.50924 4.20833C7.9259 3.625 7.21757 3.33333 6.38424 3.33333C5.5509 3.33333 4.84257 3.625 4.25924 4.20833C3.6759 4.79167 3.38424 5.5 3.38424 6.33333C3.38424 7.16667 3.6759 7.875 4.25924 8.45833C4.84257 9.04167 5.5509 9.33333 6.38424 9.33333Z" fill="#ABACAD"/>
</g>
</g>
<defs>
<clipPath id="clip0_2034_614">
<rect width="16" height="16" fill="white"/>
</clipPath>
</defs>
</svg>
