<svg width="17" height="17" viewBox="0 0 17 17" fill="none" xmlns="http://www.w3.org/2000/svg">
<g clip-path="url(#clip0_2005_875)">
<mask id="mask0_2005_875" style="mask-type:alpha" maskUnits="userSpaceOnUse" x="0" y="0" width="17" height="17">
<rect x="0.230957" y="0.5" width="16" height="16" fill="#D9D9D9"/>
</mask>
<g mask="url(#mask0_2005_875)">
<path d="M7.63094 13.1667H8.7976V12.3334C9.35316 12.2334 9.83094 12.0167 10.2309 11.6834C10.6309 11.35 10.8309 10.8556 10.8309 10.2C10.8309 9.73337 10.6976 9.3056 10.4309 8.91671C10.1643 8.52782 9.63094 8.18893 8.83094 7.90004C8.16427 7.67782 7.70316 7.48337 7.4476 7.31671C7.19205 7.15004 7.06427 6.92226 7.06427 6.63337C7.06427 6.34449 7.16705 6.11671 7.3726 5.95004C7.57816 5.78337 7.87538 5.70004 8.26427 5.70004C8.61983 5.70004 8.8976 5.78615 9.0976 5.95837C9.2976 6.1306 9.44205 6.34449 9.53094 6.60004L10.5976 6.16671C10.4754 5.77782 10.2504 5.43893 9.9226 5.15004C9.59483 4.86115 9.23094 4.70004 8.83094 4.66671V3.83337H7.66427V4.66671C7.10871 4.78893 6.67538 5.03337 6.36427 5.40004C6.05316 5.76671 5.8976 6.17782 5.8976 6.63337C5.8976 7.1556 6.05038 7.57782 6.35594 7.90004C6.66149 8.22226 7.14205 8.50004 7.7976 8.73337C8.4976 8.98893 8.98371 9.21671 9.25594 9.41671C9.52816 9.61671 9.66427 9.87782 9.66427 10.2C9.66427 10.5667 9.53371 10.8362 9.2726 11.0084C9.01149 11.1806 8.6976 11.2667 8.33094 11.2667C7.96427 11.2667 7.63927 11.1528 7.35594 10.925C7.0726 10.6973 6.86427 10.3556 6.73094 9.90004L5.63094 10.3334C5.78649 10.8667 6.02816 11.2973 6.35594 11.625C6.68371 11.9528 7.10871 12.1778 7.63094 12.3V13.1667ZM8.23094 15.1667C7.30871 15.1667 6.44205 14.9917 5.63094 14.6417C4.81983 14.2917 4.11427 13.8167 3.51427 13.2167C2.91427 12.6167 2.43927 11.9112 2.08927 11.1C1.73927 10.2889 1.56427 9.42226 1.56427 8.50004C1.56427 7.57782 1.73927 6.71115 2.08927 5.90004C2.43927 5.08893 2.91427 4.38337 3.51427 3.78337C4.11427 3.18337 4.81983 2.70837 5.63094 2.35837C6.44205 2.00837 7.30871 1.83337 8.23094 1.83337C9.15316 1.83337 10.0198 2.00837 10.8309 2.35837C11.642 2.70837 12.3476 3.18337 12.9476 3.78337C13.5476 4.38337 14.0226 5.08893 14.3726 5.90004C14.7226 6.71115 14.8976 7.57782 14.8976 8.50004C14.8976 9.42226 14.7226 10.2889 14.3726 11.1C14.0226 11.9112 13.5476 12.6167 12.9476 13.2167C12.3476 13.8167 11.642 14.2917 10.8309 14.6417C10.0198 14.9917 9.15316 15.1667 8.23094 15.1667Z" fill="#748AF4"/>
</g>
</g>
<defs>
<clipPath id="clip0_2005_875">
<rect width="16" height="16" fill="white" transform="translate(0.179993 0.5)"/>
</clipPath>
</defs>
</svg>
