<svg width="17" height="17" viewBox="0 0 17 17" fill="none" xmlns="http://www.w3.org/2000/svg">
<g clip-path="url(#clip0_2005_508)">
<mask id="mask0_2005_508" style="mask-type:alpha" maskUnits="userSpaceOnUse" x="0" y="0" width="17" height="17">
<rect x="0.230957" y="0.5" width="16" height="16" fill="#D9D9D9"/>
</mask>
<g mask="url(#mask0_2005_508)">
<path d="M7.63088 13.1667H8.79754V12.3334C9.3531 12.2334 9.83088 12.0167 10.2309 11.6834C10.6309 11.35 10.8309 10.8556 10.8309 10.2C10.8309 9.73337 10.6975 9.3056 10.4309 8.91671C10.1642 8.52782 9.63088 8.18893 8.83088 7.90004C8.16421 7.67782 7.7031 7.48337 7.44754 7.31671C7.19199 7.15004 7.06421 6.92226 7.06421 6.63337C7.06421 6.34449 7.16699 6.11671 7.37254 5.95004C7.5781 5.78337 7.87532 5.70004 8.26421 5.70004C8.61976 5.70004 8.89754 5.78615 9.09754 5.95837C9.29754 6.1306 9.44199 6.34449 9.53088 6.60004L10.5975 6.16671C10.4753 5.77782 10.2503 5.43893 9.92254 5.15004C9.59476 4.86115 9.23088 4.70004 8.83088 4.66671V3.83337H7.66421V4.66671C7.10865 4.78893 6.67532 5.03337 6.36421 5.40004C6.0531 5.76671 5.89754 6.17782 5.89754 6.63337C5.89754 7.1556 6.05032 7.57782 6.35588 7.90004C6.66143 8.22226 7.14199 8.50004 7.79754 8.73337C8.49754 8.98893 8.98365 9.21671 9.25588 9.41671C9.5281 9.61671 9.66421 9.87782 9.66421 10.2C9.66421 10.5667 9.53365 10.8362 9.27254 11.0084C9.01143 11.1806 8.69754 11.2667 8.33088 11.2667C7.96421 11.2667 7.63921 11.1528 7.35588 10.925C7.07254 10.6973 6.86421 10.3556 6.73088 9.90004L5.63088 10.3334C5.78643 10.8667 6.0281 11.2973 6.35588 11.625C6.68365 11.9528 7.10865 12.1778 7.63088 12.3V13.1667ZM8.23088 15.1667C7.30865 15.1667 6.44199 14.9917 5.63088 14.6417C4.81976 14.2917 4.11421 13.8167 3.51421 13.2167C2.91421 12.6167 2.43921 11.9112 2.08921 11.1C1.73921 10.2889 1.56421 9.42226 1.56421 8.50004C1.56421 7.57782 1.73921 6.71115 2.08921 5.90004C2.43921 5.08893 2.91421 4.38337 3.51421 3.78337C4.11421 3.18337 4.81976 2.70837 5.63088 2.35837C6.44199 2.00837 7.30865 1.83337 8.23088 1.83337C9.1531 1.83337 10.0198 2.00837 10.8309 2.35837C11.642 2.70837 12.3475 3.18337 12.9475 3.78337C13.5475 4.38337 14.0225 5.08893 14.3725 5.90004C14.7225 6.71115 14.8975 7.57782 14.8975 8.50004C14.8975 9.42226 14.7225 10.2889 14.3725 11.1C14.0225 11.9112 13.5475 12.6167 12.9475 13.2167C12.3475 13.8167 11.642 14.2917 10.8309 14.6417C10.0198 14.9917 9.1531 15.1667 8.23088 15.1667Z" fill="#748AF4"/>
</g>
</g>
<defs>
<clipPath id="clip0_2005_508">
<rect width="16" height="16" fill="white" transform="translate(0.179932 0.5)"/>
</clipPath>
</defs>
</svg>
