<svg width="24" height="24" viewBox="0 0 24 24" fill="none" xmlns="http://www.w3.org/2000/svg">
<g clip-path="url(#clip0_2005_267)">
<mask id="mask0_2005_267" style="mask-type:alpha" maskUnits="userSpaceOnUse" x="0" y="0" width="25" height="24">
<rect x="0.076416" width="24" height="24" fill="#D9D9D9"/>
</mask>
<g mask="url(#mask0_2005_267)">
<path d="M9.75142 13.7L10.6264 10.85L8.32642 9H11.1764L12.0764 6.2L12.9764 9H15.8264L13.5014 10.85L14.3764 13.7L12.0764 11.925L9.75142 13.7ZM6.07642 23V15.275C5.44308 14.575 4.95142 13.775 4.60142 12.875C4.25142 11.975 4.07642 11.0167 4.07642 10C4.07642 7.76667 4.85142 5.875 6.40142 4.325C7.95142 2.775 9.84308 2 12.0764 2C14.3097 2 16.2014 2.775 17.7514 4.325C19.3014 5.875 20.0764 7.76667 20.0764 10C20.0764 11.0167 19.9014 11.975 19.5514 12.875C19.2014 13.775 18.7097 14.575 18.0764 15.275V23L12.0764 21L6.07642 23ZM12.0764 16C13.7431 16 15.1597 15.4167 16.3264 14.25C17.4931 13.0833 18.0764 11.6667 18.0764 10C18.0764 8.33333 17.4931 6.91667 16.3264 5.75C15.1597 4.58333 13.7431 4 12.0764 4C10.4097 4 8.99308 4.58333 7.82642 5.75C6.65975 6.91667 6.07642 8.33333 6.07642 10C6.07642 11.6667 6.65975 13.0833 7.82642 14.25C8.99308 15.4167 10.4097 16 12.0764 16Z" fill="#ABACAD"/>
</g>
</g>
<defs>
<clipPath id="clip0_2005_267">
<rect width="24" height="24" fill="white"/>
</clipPath>
</defs>
</svg>
