<svg width="24" height="24" viewBox="0 0 24 24" fill="none" xmlns="http://www.w3.org/2000/svg">
<g clip-path="url(#clip0_2005_318)">
<mask id="mask0_2005_318" style="mask-type:alpha" maskUnits="userSpaceOnUse" x="0" y="0" width="25" height="24">
<rect x="0.076416" width="24" height="24" fill="#D9D9D9"/>
</mask>
<g mask="url(#mask0_2005_318)">
<path d="M6.02646 21C5.7098 21 5.4598 20.8708 5.27646 20.6125C5.09313 20.3542 5.04313 20.075 5.12646 19.775L9.57647 3.7C9.64313 3.48333 9.7598 3.3125 9.92647 3.1875C10.0931 3.0625 10.2848 3 10.5015 3C10.8348 3 11.0931 3.12917 11.2765 3.3875C11.4598 3.64583 11.5098 3.925 11.4265 4.225L10.9265 6H16.5515L17.1765 3.7C17.2431 3.48333 17.364 3.3125 17.539 3.1875C17.714 3.0625 17.9098 3 18.1265 3C18.4431 3 18.6931 3.12917 18.8765 3.3875C19.0598 3.64583 19.1098 3.925 19.0265 4.225L14.5765 20.3C14.5098 20.5167 14.3931 20.6875 14.2265 20.8125C14.0598 20.9375 13.8681 21 13.6515 21C13.3181 21 13.0598 20.8708 12.8765 20.6125C12.6931 20.3542 12.6431 20.075 12.7265 19.775L13.2265 18H7.60146L6.97646 20.3C6.9098 20.5167 6.78896 20.6875 6.61396 20.8125C6.43896 20.9375 6.24313 21 6.02646 21ZM9.55147 11H15.1515L15.9765 8H10.3765L9.55147 11ZM8.17646 16H13.7765L14.6015 13H9.00146L8.17646 16Z" fill="#ABACAD"/>
</g>
</g>
<defs>
<clipPath id="clip0_2005_318">
<rect width="24" height="24" fill="white"/>
</clipPath>
</defs>
</svg>
