<svg width="53" height="52" viewBox="0 0 53 52" fill="none" xmlns="http://www.w3.org/2000/svg">
<path d="M50.5 26C50.5 29.1517 49.8792 32.2726 48.6731 35.1844C47.467 38.0962 45.6992 40.742 43.4706 42.9706C41.242 45.1992 38.5962 46.967 35.6844 48.1731C32.7726 49.3792 29.6517 50 26.5 50C23.3483 50 20.2274 49.3792 17.3156 48.1731C14.4038 46.967 11.758 45.1992 9.52944 42.9706C7.30083 40.742 5.533 38.0962 4.32689 35.1844C3.12078 32.2726 2.5 29.1517 2.5 26C2.5 22.8483 3.12078 19.7274 4.32689 16.8156C5.53301 13.9038 7.30083 11.258 9.52944 9.02944C11.758 6.80083 14.4038 5.033 17.3156 3.82689C20.2274 2.62078 23.3483 2 26.5 2C29.6517 2 32.7726 2.62078 35.6844 3.82689C38.5962 5.03301 41.242 6.80083 43.4706 9.02944C45.6992 11.258 47.467 13.9038 48.6731 16.8156C49.8792 19.7274 50.5 22.8483 50.5 26L50.5 26Z" stroke="#DBE1FF" stroke-width="4"/>
<path d="M50.5 26C50.5 30.7468 49.0924 35.3869 46.4553 39.3337C43.8181 43.2805 40.0698 46.3566 35.6844 48.1731C31.299 49.9896 26.4734 50.4649 21.8178 49.5388C17.1623 48.6128 12.8859 46.327 9.52944 42.9706C6.17298 39.6141 3.8872 35.3377 2.96115 30.6822C2.03511 26.0266 2.51039 21.201 4.32689 16.8156C6.14339 12.4302 9.21953 8.68188 13.1663 6.04473C17.1131 3.40758 21.7532 2 26.5 2" stroke="url(#paint0_linear_1_7879)" stroke-width="4" stroke-linecap="square"/>
<defs>
<linearGradient id="paint0_linear_1_7879" x1="26.5" y1="2" x2="24.5" y2="52" gradientUnits="userSpaceOnUse">
<stop stop-color="#DBE1FF" stop-opacity="0"/>
<stop offset="0.5" stop-color="#4264FF"/>
<stop offset="1" stop-color="#3A4A92"/>
</linearGradient>
</defs>
</svg>
