<svg width="17" height="17" viewBox="0 0 17 17" fill="none" xmlns="http://www.w3.org/2000/svg">
<g clip-path="url(#clip0_2001_546)">
<mask id="mask0_2001_546" style="mask-type:alpha" maskUnits="userSpaceOnUse" x="0" y="0" width="17" height="17">
<rect x="0.230957" y="0.5" width="16" height="16" fill="#D9D9D9"/>
</mask>
<g mask="url(#mask0_2001_546)">
<path d="M0.897705 13.8333V11.9666C0.897705 11.5888 0.994927 11.2416 1.18937 10.925C1.38382 10.6083 1.64215 10.3666 1.96437 10.2C2.65326 9.85551 3.35326 9.59718 4.06437 9.42496C4.77548 9.25274 5.49771 9.16663 6.23104 9.16663C6.96437 9.16663 7.68659 9.25274 8.39771 9.42496C9.10882 9.59718 9.80882 9.85551 10.4977 10.2C10.8199 10.3666 11.0783 10.6083 11.2727 10.925C11.4671 11.2416 11.5644 11.5888 11.5644 11.9666V13.8333H0.897705ZM12.8977 13.8333V11.8333C12.8977 11.3444 12.7616 10.875 12.4894 10.425C12.2172 9.97496 11.831 9.58885 11.331 9.26663C11.8977 9.33329 12.431 9.44718 12.931 9.60829C13.431 9.7694 13.8977 9.96663 14.331 10.2C14.731 10.4222 15.0366 10.6694 15.2477 10.9416C15.4588 11.2138 15.5644 11.5111 15.5644 11.8333V13.8333H12.8977ZM6.23104 8.49996C5.49771 8.49996 4.86993 8.23885 4.34771 7.71663C3.82548 7.1944 3.56437 6.56663 3.56437 5.83329C3.56437 5.09996 3.82548 4.47218 4.34771 3.94996C4.86993 3.42774 5.49771 3.16663 6.23104 3.16663C6.96437 3.16663 7.59215 3.42774 8.11437 3.94996C8.63659 4.47218 8.89771 5.09996 8.89771 5.83329C8.89771 6.56663 8.63659 7.1944 8.11437 7.71663C7.59215 8.23885 6.96437 8.49996 6.23104 8.49996ZM12.8977 5.83329C12.8977 6.56663 12.6366 7.1944 12.1144 7.71663C11.5922 8.23885 10.9644 8.49996 10.231 8.49996C10.1088 8.49996 9.95326 8.48607 9.76437 8.45829C9.57548 8.43051 9.41993 8.39996 9.29771 8.36663C9.59771 8.01107 9.82826 7.61663 9.98937 7.18329C10.1505 6.74996 10.231 6.29996 10.231 5.83329C10.231 5.36663 10.1505 4.91663 9.98937 4.48329C9.82826 4.04996 9.59771 3.65551 9.29771 3.29996C9.45326 3.2444 9.60882 3.20829 9.76437 3.19163C9.91993 3.17496 10.0755 3.16663 10.231 3.16663C10.9644 3.16663 11.5922 3.42774 12.1144 3.94996C12.6366 4.47218 12.8977 5.09996 12.8977 5.83329ZM2.23104 12.5H10.231V11.9666C10.231 11.8444 10.2005 11.7333 10.1394 11.6333C10.0783 11.5333 9.99771 11.4555 9.89771 11.4C9.29771 11.1 8.69215 10.875 8.08104 10.725C7.46993 10.575 6.85326 10.5 6.23104 10.5C5.60882 10.5 4.99215 10.575 4.38104 10.725C3.76993 10.875 3.16437 11.1 2.56437 11.4C2.46437 11.4555 2.38382 11.5333 2.32271 11.6333C2.26159 11.7333 2.23104 11.8444 2.23104 11.9666V12.5ZM6.23104 7.16663C6.59771 7.16663 6.91159 7.03607 7.17271 6.77496C7.43382 6.51385 7.56437 6.19996 7.56437 5.83329C7.56437 5.46663 7.43382 5.15274 7.17271 4.89163C6.91159 4.63051 6.59771 4.49996 6.23104 4.49996C5.86437 4.49996 5.55048 4.63051 5.28937 4.89163C5.02826 5.15274 4.89771 5.46663 4.89771 5.83329C4.89771 6.19996 5.02826 6.51385 5.28937 6.77496C5.55048 7.03607 5.86437 7.16663 6.23104 7.16663Z" fill="#748AF4"/>
</g>
</g>
<defs>
<clipPath id="clip0_2001_546">
<rect width="16" height="16" fill="white" transform="translate(0.179932 0.5)"/>
</clipPath>
</defs>
</svg>
