<svg width="24" height="24" viewBox="0 0 24 24" fill="none" xmlns="http://www.w3.org/2000/svg">
<g clip-path="url(#clip0_2005_485)">
<mask id="mask0_2005_485" style="mask-type:alpha" maskUnits="userSpaceOnUse" x="0" y="0" width="25" height="24">
<rect x="0.076416" width="24" height="24" fill="#D9D9D9"/>
</mask>
<g mask="url(#mask0_2005_485)">
<path d="M18.0764 13V11H22.0764V13H18.0764ZM19.2764 20L16.0764 17.6L17.2764 16L20.4764 18.4L19.2764 20ZM17.2764 8L16.0764 6.4L19.2764 4L20.4764 5.6L17.2764 8ZM5.07642 19V15H4.07642C3.52642 15 3.05558 14.8042 2.66392 14.4125C2.27225 14.0208 2.07642 13.55 2.07642 13V11C2.07642 10.45 2.27225 9.97917 2.66392 9.5875C3.05558 9.19583 3.52642 9 4.07642 9H8.07642L13.0764 6V18L8.07642 15H7.07642V19H5.07642ZM14.0764 15.35V8.65C14.5264 9.05 14.8889 9.5375 15.1639 10.1125C15.4389 10.6875 15.5764 11.3167 15.5764 12C15.5764 12.6833 15.4389 13.3125 15.1639 13.8875C14.8889 14.4625 14.5264 14.95 14.0764 15.35Z" fill="#ABACAD"/>
</g>
</g>
<defs>
<clipPath id="clip0_2005_485">
<rect width="24" height="24" fill="white"/>
</clipPath>
</defs>
</svg>
