<svg width="24" height="24" viewBox="0 0 24 24" fill="none" xmlns="http://www.w3.org/2000/svg">
<g clip-path="url(#clip0_2034_587)">
<mask id="mask0_2034_587" style="mask-type:alpha" maskUnits="userSpaceOnUse" x="0" y="0" width="25" height="24">
<rect x="0.076416" width="24" height="24" fill="#D9D9D9"/>
</mask>
<g mask="url(#mask0_2034_587)">
<path d="M2.70142 18.175L1.07642 17L6.07642 9L9.07642 12.5L13.0764 6L15.8014 10.075C15.4181 10.0917 15.0556 10.1375 14.7139 10.2125C14.3722 10.2875 14.0347 10.3917 13.7014 10.525L13.1514 9.7L9.35142 15.875L6.32642 12.35L2.70142 18.175ZM21.6514 23L18.5264 19.875C18.1931 20.1083 17.8222 20.2833 17.4139 20.4C17.0056 20.5167 16.5847 20.575 16.1514 20.575C14.9014 20.575 13.8389 20.1375 12.9639 19.2625C12.0889 18.3875 11.6514 17.325 11.6514 16.075C11.6514 14.825 12.0889 13.7625 12.9639 12.8875C13.8389 12.0125 14.9014 11.575 16.1514 11.575C17.4014 11.575 18.4639 12.0125 19.3389 12.8875C20.2139 13.7625 20.6514 14.825 20.6514 16.075C20.6514 16.5083 20.5931 16.9292 20.4764 17.3375C20.3597 17.7458 20.1847 18.125 19.9514 18.475L23.0764 21.575L21.6514 23ZM16.1514 18.575C16.8514 18.575 17.4431 18.3333 17.9264 17.85C18.4097 17.3667 18.6514 16.775 18.6514 16.075C18.6514 15.375 18.4097 14.7833 17.9264 14.3C17.4431 13.8167 16.8514 13.575 16.1514 13.575C15.4514 13.575 14.8597 13.8167 14.3764 14.3C13.8931 14.7833 13.6514 15.375 13.6514 16.075C13.6514 16.775 13.8931 17.3667 14.3764 17.85C14.8597 18.3333 15.4514 18.575 16.1514 18.575ZM18.3764 10.575C18.0597 10.4417 17.7306 10.3333 17.3889 10.25C17.0472 10.1667 16.6931 10.1167 16.3264 10.1L21.4514 2L23.0764 3.175L18.3764 10.575Z" fill="#ABACAD"/>
</g>
</g>
<defs>
<clipPath id="clip0_2034_587">
<rect width="24" height="24" fill="white"/>
</clipPath>
</defs>
</svg>
