<svg width="24" height="24" viewBox="0 0 24 24" fill="none" xmlns="http://www.w3.org/2000/svg">
<g clip-path="url(#clip0_2005_753)">
<mask id="mask0_2005_753" style="mask-type:alpha" maskUnits="userSpaceOnUse" x="0" y="0" width="25" height="24">
<rect x="0.076416" width="24" height="24" fill="#D9D9D9"/>
</mask>
<g mask="url(#mask0_2005_753)">
<path d="M11.1764 19H12.9264V17.75C13.7597 17.6 14.4764 17.275 15.0764 16.775C15.6764 16.275 15.9764 15.5333 15.9764 14.55C15.9764 13.85 15.7764 13.2083 15.3764 12.625C14.9764 12.0417 14.1764 11.5333 12.9764 11.1C11.9764 10.7667 11.2847 10.475 10.9014 10.225C10.5181 9.975 10.3264 9.63333 10.3264 9.2C10.3264 8.76667 10.4806 8.425 10.7889 8.175C11.0972 7.925 11.5431 7.8 12.1264 7.8C12.6597 7.8 13.0764 7.92917 13.3764 8.1875C13.6764 8.44583 13.8931 8.76667 14.0264 9.15L15.6264 8.5C15.4431 7.91667 15.1056 7.40833 14.6139 6.975C14.1222 6.54167 13.5764 6.3 12.9764 6.25V5H11.2264V6.25C10.3931 6.43333 9.74308 6.8 9.27642 7.35C8.80975 7.9 8.57642 8.51667 8.57642 9.2C8.57642 9.98333 8.80558 10.6167 9.26392 11.1C9.72225 11.5833 10.4431 12 11.4264 12.35C12.4764 12.7333 13.2056 13.075 13.6139 13.375C14.0223 13.675 14.2264 14.0667 14.2264 14.55C14.2264 15.1 14.0306 15.5042 13.6389 15.7625C13.2472 16.0208 12.7764 16.15 12.2264 16.15C11.6764 16.15 11.1889 15.9792 10.7639 15.6375C10.3389 15.2958 10.0264 14.7833 9.82642 14.1L8.17642 14.75C8.40975 15.55 8.77225 16.1958 9.26392 16.6875C9.75558 17.1792 10.3931 17.5167 11.1764 17.7V19ZM12.0764 22C10.6931 22 9.39308 21.7375 8.17642 21.2125C6.95975 20.6875 5.90142 19.975 5.00142 19.075C4.10142 18.175 3.38892 17.1167 2.86392 15.9C2.33892 14.6833 2.07642 13.3833 2.07642 12C2.07642 10.6167 2.33892 9.31667 2.86392 8.1C3.38892 6.88333 4.10142 5.825 5.00142 4.925C5.90142 4.025 6.95975 3.3125 8.17642 2.7875C9.39308 2.2625 10.6931 2 12.0764 2C13.4597 2 14.7598 2.2625 15.9764 2.7875C17.1931 3.3125 18.2514 4.025 19.1514 4.925C20.0514 5.825 20.7639 6.88333 21.2889 8.1C21.8139 9.31667 22.0764 10.6167 22.0764 12C22.0764 13.3833 21.8139 14.6833 21.2889 15.9C20.7639 17.1167 20.0514 18.175 19.1514 19.075C18.2514 19.975 17.1931 20.6875 15.9764 21.2125C14.7598 21.7375 13.4597 22 12.0764 22Z" fill="#ABACAD"/>
</g>
</g>
<defs>
<clipPath id="clip0_2005_753">
<rect width="24" height="24" fill="white"/>
</clipPath>
</defs>
</svg>
